<svg width="185" height="45" viewBox="0 0 185 45" fill="none" xmlns="http://www.w3.org/2000/svg">
<g clip-path="url(#clip0_3426_1465)">
<path d="M70.75 42V40.7L76.4 40.05H78.35V42H70.75ZM74.55 42C74.6167 40.5667 74.6667 38.9833 74.7 37.25C74.7333 35.4833 74.75 33.6667 74.75 31.8C74.75 29.9333 74.75 28.1167 74.75 26.35V24.2C74.75 22.4667 74.75 20.6833 74.75 18.85C74.75 17.0167 74.7333 15.2333 74.7 13.5C74.6667 11.7667 74.6167 10.2 74.55 8.8H80.4C80.3667 10.2 80.3333 11.7667 80.3 13.5C80.2667 15.2333 80.2333 17.0167 80.2 18.85C80.2 20.6833 80.2 22.4667 80.2 24.2V26.25C80.2 28.0167 80.2 29.85 80.2 31.75C80.2333 33.65 80.2667 35.4833 80.3 37.25C80.3333 38.9833 80.3667 40.5667 80.4 42H74.55ZM77.5 42V40.4H92.3L90.5 41.25L93.35 32.75H94.9L94.4 42H77.5ZM77.5 25.85V24.2H87.05V25.85H77.5ZM87.55 30.6L86.15 25.45V24.55L87.55 19.45H88.85V30.6H87.55ZM70.75 10.1V8.8H78.35V10.75H76.4L70.75 10.1ZM92.5 17.65L89.6 9.55L91.45 10.4H77.2V8.8H93.55L94.05 17.65H92.5ZM97.0402 42V40.7L101.04 40.15H101.99L106.59 40.7V42H97.0402ZM99.8902 42L110.79 8.55H113.64L124.64 42H118.74L109.89 13.45H110.84L110.59 14.1L101.74 42H99.8902ZM104.64 30.85V29.25H118.09V30.85H104.64ZM114.09 42V40.75L119.69 40.05H122.64L127.34 40.75V42H114.09ZM129.441 42V40.7L135.091 40.05H136.141V42H129.441ZM133.241 42C133.308 40.5667 133.358 38.9833 133.391 37.25C133.425 35.4833 133.441 33.6667 133.441 31.8C133.441 29.9 133.441 28.0833 133.441 26.35V24.2C133.441 22.5 133.441 20.7333 133.441 18.9C133.441 17.0667 133.425 15.2833 133.391 13.55C133.358 11.8167 133.308 10.2333 133.241 8.8H139.091C139.025 10.2 138.975 11.7667 138.941 13.5C138.908 15.2333 138.891 17.0167 138.891 18.85C138.891 20.6833 138.891 22.4667 138.891 24.2V26.2C138.891 28 138.891 29.85 138.891 31.75C138.891 33.6167 138.908 35.4333 138.941 37.2C138.975 38.9667 139.025 40.5667 139.091 42H133.241ZM135.841 42V40.4H141.091C143.791 40.4 145.841 39.75 147.241 38.45C148.675 37.15 149.391 35.3333 149.391 33C149.391 30.5333 148.691 28.6833 147.291 27.45C145.925 26.1833 143.775 25.55 140.841 25.55H135.841V24H140.641C142.308 24 143.691 23.75 144.791 23.25C145.925 22.7167 146.758 21.9333 147.291 20.9C147.858 19.8333 148.141 18.5167 148.141 16.95C148.141 15.4167 147.875 14.1667 147.341 13.2C146.841 12.2333 146.075 11.5333 145.041 11.1C144.041 10.6333 142.791 10.4 141.291 10.4H135.841V8.8H142.391C144.925 8.8 147.008 9.13333 148.641 9.8C150.275 10.4667 151.475 11.3833 152.241 12.55C153.041 13.7167 153.441 15.0667 153.441 16.6C153.441 18.0667 153.041 19.4 152.241 20.6C151.475 21.8 150.291 22.7833 148.691 23.55C147.091 24.3167 145.025 24.75 142.491 24.85V24.5C145.291 24.5667 147.608 24.9667 149.441 25.7C151.308 26.4 152.708 27.3833 153.641 28.65C154.575 29.8833 155.041 31.3 155.041 32.9C155.041 34.2 154.741 35.4 154.141 36.5C153.575 37.6 152.741 38.5667 151.641 39.4C150.541 40.2 149.141 40.8333 147.441 41.3C145.775 41.7667 143.858 42 141.691 42H135.841ZM129.441 10.1V8.8H136.141V10.75H135.091L129.441 10.1Z" fill="#004A97"/>
<path d="M61.5833 19.375V15.9583H59.875V12.5417H58.1667V10.8333H56.4583V9.125H53.0417V7.41667H49.625V5.70834H39.375V7.41667H35.9583V9.125H32.5417V10.8333H30.8333V12.5417H29.125V15.9583H27.4167V19.375H25.7083V31.3333H27.4167V33.0417H29.125V36.4583H30.8333V38.1667H32.5417V39.875H35.9583V41.5833H39.375V43.2917H49.625V41.5833H53.0417V39.875H56.4583V38.1667H58.1667V36.4583H59.875V33.0417H61.5833V29.625H63.2917V19.375H61.5833ZM59.875 21.0833V27.9167H54.75V21.0833H59.875ZM51.3333 10.8333H53.0417V12.5417H56.4583V15.9583H58.1667V17.6667H53.0417V12.5417H51.3333V10.8333ZM47.9167 34.75V38.1667H46.2083V39.875H42.7917V38.1667H41.0833V34.75H39.375V31.3333H49.625V34.75H47.9167ZM51.3333 21.0833V27.9167H37.6667V21.0833H51.3333ZM39.375 14.25H41.0833V10.8333H42.7917V9.125H46.2083V10.8333H47.9167V14.25H49.625V17.6667H39.375V14.25ZM30.8333 15.9583H32.5417V12.5417H35.9583V10.8333H37.6667V12.5417H35.9583V17.6667H30.8333V15.9583ZM29.125 27.9167V21.0833H34.25V27.9167H29.125ZM32.5417 36.4583V33.0417H30.8333V31.3333H35.9583V36.4583H37.6667V38.1667H35.9583V36.4583H32.5417ZM56.4583 33.0417V36.4583H53.0417V38.1667H51.3333V36.4583H53.0417V31.3333H58.1667V33.0417H56.4583Z" fill="#004A97"/>
</g>
<defs>
<clipPath id="clip0_3426_1465">
<rect width="185" height="45" fill="white"/>
</clipPath>
</defs>
</svg>
